# xmcd
#
# Track frame offsets:
#	150
#	14580
#	30439
#	46051
#	63679
#	81119
#	102294
#	116264
#	132594
#	144219
#	157389
#	173505
#
# Disc length: 2657 seconds
#
# Revision: 2
# Processed by: cddbd v1.5.1PL2 Copyright (c) Steve Scherf et al.
# Submitted via: dBpowerAMP V4.0
#
DISCID=9a0a5f0c
DTITLE=Highway 101 - Highway 101 and paulette Carlson Reunited
DYEAR=1996
DGENRE=Country
TTITLE0=Where'd You Get Your Cheatin' From
TTITLE1=The Bed You Made For Me
TTITLE2=Holdin' On
TTITLE3=Hearts On the Run
TTITLE4=Setting Me Up
TTITLE5=She Don't Have the Heart to Love You
TTITLE6=Texas Girl
TTITLE7=All the Reasons Why
TTITLE8=Walkin', Talkin', Cryin', Barely Beatin' Broken Heart
TTITLE9=I've Got Your Number
TTITLE10=It Must Be Love
TTITLE11=Have you Ever Really Loved a Woman
EXTD=
EXTT0=
EXTT1=
EXTT2=
EXTT3=
EXTT4=
EXTT5=
EXTT6=
EXTT7=
EXTT8=
EXTT9=
EXTT10=
EXTT11=
PLAYORDER=
